<?xml version="1.0" encoding="utf-8"?>
<svg version="1.1" id="Layer_1" x="0px" y="0px" viewBox="0 0 512.001 512.001" style="enable-background:new 0 0 512.001 512.001;" xmlns="http://www.w3.org/2000/svg">
  <circle style="fill:#EC6907;" cx="256.003" cy="318.054" r="186.345"/>
  <path style="fill:#08AA6E;" d="M276.633,34.834c22.639-17.831,61.397-6.381,61.397-6.381s2.054,40.362-20.584,58.194 c-22.639,17.832-61.397,6.382-61.397,6.382S253.995,52.667,276.633,34.834z"/>
  <g>
    <path style="" d="M 263.607 124.263 L 263.607 102.494 C 268.783 103.404 275.606 104.255 283.05 104.255 C 299.198 104.255 312.353 100.341 322.153 92.623 C 347.589 72.589 345.719 29.875 345.627 28.067 L 345.353 22.685 L 340.185 21.159 C 339.641 20.999 326.699 17.228 311.027 17.228 C 294.88 17.228 281.725 21.141 271.926 28.859 C 267.245 32.547 263.493 37.003 260.479 41.829 C 252.393 17.556 259.529 38.428 249.325 8.868 L 236.516 25.56 C 247.029 42.803 248.394 35.792 248.394 61.086 L 248.394 89.321 C 248.387 90.03 248.389 90.657 248.394 91.198 L 248.394 124.264 C 144.962 128.274 62.051 213.655 62.051 318.051 C 62.051 424.995 149.056 512.001 256.001 512.001 C 362.946 512.001 449.95 424.996 449.95 318.051 C 449.949 213.655 367.038 128.274 263.607 124.263 Z M 265.327 72.024 C 267.199 62.063 271.499 48.562 281.34 40.81 C 288.391 35.256 298.378 32.442 311.028 32.442 C 318.755 32.442 325.808 33.535 330.41 34.464 C 330.271 38.228 329.86 43.561 328.752 49.459 C 326.88 59.42 322.581 72.92 312.74 80.672 C 305.689 86.226 295.7 89.041 283.051 89.041 C 275.325 89.041 268.272 87.948 263.67 87.019 C 263.808 83.256 264.218 77.923 265.327 72.024 Z M 256 496.786 C 157.445 496.786 77.263 416.606 77.263 318.049 C 77.263 219.492 157.444 139.313 256 139.313 C 354.556 139.313 434.736 219.494 434.736 318.05 C 434.736 416.606 354.555 496.786 256 496.786 Z"/>
    <path style="" d="M256,466.359v15.214c25.974,0,50.825-5.939,73.867-17.653l-6.895-13.561 C302.087,460.976,279.555,466.359,256,466.359z"/>
    <path style="" d="M404.309,318.051c0,48.918-24.195,94.694-64.721,122.451l8.598,12.552 c44.67-30.595,71.337-81.064,71.337-135.003H404.309z"/>
  </g>
  <g/>
  <g/>
  <g/>
  <g/>
  <g/>
  <g/>
  <g/>
  <g/>
  <g/>
  <g/>
  <g/>
  <g/>
  <g/>
  <g/>
  <g/>
  <rect x="180" y="240" width="160" height="12" style="stroke: rgb(0, 0, 0); stroke-width: 0px;"/>
  <rect x="180" y="310" width="160" height="12" style="stroke: rgb(0, 0, 0); stroke-width: 0px;"/>
  <rect x="180" y="380" width="160" height="12" style="stroke: rgb(0, 0, 0); stroke-width: 0px;"/>
</svg>